<mxfile host="Electron" modified="2024-04-06T10:15:19.943Z" agent="Mozilla/5.0 (Windows NT 10.0; Win64; x64) AppleWebKit/537.36 (KHTML, like Gecko) draw.io/24.1.0 Chrome/120.0.6099.109 Electron/28.1.0 Safari/537.36" etag="wf6R2vfWnEJTB0EwTBLd" version="24.1.0" type="device">
  <diagram name="Page-1" id="F8yLyfG5k_Gs6phSJTx4">
    <mxGraphModel dx="1366" dy="813" grid="1" gridSize="10" guides="1" tooltips="1" connect="1" arrows="1" fold="1" page="1" pageScale="1" pageWidth="850" pageHeight="1100" math="0" shadow="0">
      <root>
        <mxCell id="0" />
        <mxCell id="1" parent="0" />
        <mxCell id="mDkBpy17l9RmWBWMpbGm-1" value="&lt;font style=&quot;font-size: 15px;&quot; face=&quot;Times New Roman&quot;&gt;TODO:&lt;/font&gt;" style="text;strokeColor=none;fillColor=none;html=1;fontSize=24;fontStyle=1;verticalAlign=middle;align=center;" parent="1" vertex="1">
          <mxGeometry x="20" y="100" width="90" height="20" as="geometry" />
        </mxCell>
        <mxCell id="mDkBpy17l9RmWBWMpbGm-2" value="&lt;font style=&quot;font-size: 25px;&quot; face=&quot;Times New Roman&quot;&gt;Tianac Project&lt;/font&gt;" style="text;strokeColor=none;fillColor=none;html=1;fontSize=24;fontStyle=1;verticalAlign=middle;align=center;" parent="1" vertex="1">
          <mxGeometry x="335" y="40" width="180" height="40" as="geometry" />
        </mxCell>
        <mxCell id="mDkBpy17l9RmWBWMpbGm-3" value="&lt;font face=&quot;Times New Roman&quot;&gt;Jump Logic&lt;/font&gt;" style="rounded=1;whiteSpace=wrap;html=1;fillColor=#f8cecc;strokeColor=none;" parent="1" vertex="1">
          <mxGeometry x="160" y="300" width="130" height="40" as="geometry" />
        </mxCell>
        <mxCell id="mDkBpy17l9RmWBWMpbGm-5" value="&lt;font face=&quot;Times New Roman&quot;&gt;Player Movement&lt;/font&gt;" style="rounded=1;whiteSpace=wrap;html=1;fillColor=#f8cecc;strokeColor=none;verticalAlign=middle;" parent="1" vertex="1">
          <mxGeometry x="95" y="190" width="140" height="40" as="geometry" />
        </mxCell>
        <mxCell id="mDkBpy17l9RmWBWMpbGm-8" value="" style="endArrow=none;html=1;rounded=0;strokeWidth=2;entryX=0.25;entryY=1;entryDx=0;entryDy=0;" parent="1" target="mDkBpy17l9RmWBWMpbGm-5" edge="1">
          <mxGeometry width="50" height="50" relative="1" as="geometry">
            <mxPoint x="130" y="490" as="sourcePoint" />
            <mxPoint x="125" y="240" as="targetPoint" />
          </mxGeometry>
        </mxCell>
        <mxCell id="mDkBpy17l9RmWBWMpbGm-9" value="" style="endArrow=none;html=1;rounded=0;strokeWidth=2;entryX=0.25;entryY=1;entryDx=0;entryDy=0;" parent="1" target="mDkBpy17l9RmWBWMpbGm-3" edge="1">
          <mxGeometry width="50" height="50" relative="1" as="geometry">
            <mxPoint x="193" y="490" as="sourcePoint" />
            <mxPoint x="145" y="300" as="targetPoint" />
          </mxGeometry>
        </mxCell>
        <mxCell id="mDkBpy17l9RmWBWMpbGm-10" value="&lt;font face=&quot;Times New Roman&quot;&gt;Hold the jump until the space button is released&lt;/font&gt;" style="rounded=1;whiteSpace=wrap;html=1;fillColor=#f8cecc;strokeColor=none;" parent="1" vertex="1">
          <mxGeometry x="220" y="350" width="270" height="40" as="geometry" />
        </mxCell>
        <mxCell id="mDkBpy17l9RmWBWMpbGm-11" value="&lt;font face=&quot;Times New Roman&quot;&gt;Move left and right while holding arrow key and tappping the spacebar&lt;/font&gt;" style="rounded=1;whiteSpace=wrap;html=1;fillColor=#f8cecc;strokeColor=none;" parent="1" vertex="1">
          <mxGeometry x="220" y="470" width="270" height="40" as="geometry" />
        </mxCell>
        <mxCell id="mDkBpy17l9RmWBWMpbGm-12" value="&lt;ul&gt;&lt;li&gt;&lt;font face=&quot;Times New Roman&quot;&gt;NOTE: The main movement is the jump, it needs to jumps to move on left and right&lt;/font&gt;&lt;/li&gt;&lt;li style=&quot;text-align: left;&quot;&gt;&lt;font face=&quot;PyJGiGP7kHdkVRs5NLQc&quot;&gt;NOTE: The player gravity must be tweaked for it to adjust on the enviroment&lt;/font&gt;&lt;/li&gt;&lt;/ul&gt;" style="rounded=0;whiteSpace=wrap;html=1;fillColor=#f5f5f5;fontColor=#333333;strokeColor=none;align=center;verticalAlign=top;" parent="1" vertex="1">
          <mxGeometry x="330" y="180" width="460" height="160" as="geometry" />
        </mxCell>
        <mxCell id="mDkBpy17l9RmWBWMpbGm-13" value="&lt;font face=&quot;Times New Roman&quot;&gt;Charging jump&lt;/font&gt;&lt;div&gt;&lt;font face=&quot;Times New Roman&quot;&gt;Maximum and minimun jump will depend on&amp;nbsp;&lt;/font&gt;&lt;/div&gt;&lt;div&gt;&lt;font face=&quot;Times New Roman&quot;&gt;how long the jump is being hold&lt;/font&gt;&lt;/div&gt;" style="rounded=1;whiteSpace=wrap;html=1;fillColor=#f8cecc;strokeColor=none;" parent="1" vertex="1">
          <mxGeometry x="220" y="400" width="270" height="60" as="geometry" />
        </mxCell>
        <mxCell id="mDkBpy17l9RmWBWMpbGm-14" value="&lt;font face=&quot;Times New Roman&quot;&gt;Game Logic&lt;/font&gt;" style="rounded=1;whiteSpace=wrap;html=1;fillColor=#dae8fc;strokeColor=none;" parent="1" vertex="1">
          <mxGeometry x="30" y="140" width="150" height="40" as="geometry" />
        </mxCell>
        <mxCell id="mDkBpy17l9RmWBWMpbGm-16" value="" style="endArrow=none;html=1;rounded=0;strokeWidth=2;entryX=0.25;entryY=1;entryDx=0;entryDy=0;" parent="1" target="mDkBpy17l9RmWBWMpbGm-14" edge="1">
          <mxGeometry width="50" height="50" relative="1" as="geometry">
            <mxPoint x="68" y="860" as="sourcePoint" />
            <mxPoint x="64.5" y="200" as="targetPoint" />
          </mxGeometry>
        </mxCell>
        <mxCell id="mDkBpy17l9RmWBWMpbGm-17" value="&lt;font face=&quot;Times New Roman&quot;&gt;Player Gravity&lt;/font&gt;" style="rounded=1;whiteSpace=wrap;html=1;fillColor=#ffe6cc;strokeColor=none;verticalAlign=middle;" parent="1" vertex="1">
          <mxGeometry x="160" y="250" width="130" height="40" as="geometry" />
        </mxCell>
        <mxCell id="mDkBpy17l9RmWBWMpbGm-18" value="" style="rounded=0;whiteSpace=wrap;html=1;fillColor=#f8cecc;strokeColor=none;" parent="1" vertex="1">
          <mxGeometry x="560" y="40" width="20" height="20" as="geometry" />
        </mxCell>
        <mxCell id="mDkBpy17l9RmWBWMpbGm-21" value="" style="rounded=0;whiteSpace=wrap;html=1;fillColor=#d5e8d4;strokeColor=none;" parent="1" vertex="1">
          <mxGeometry x="560" y="70" width="20" height="20" as="geometry" />
        </mxCell>
        <mxCell id="mDkBpy17l9RmWBWMpbGm-22" value="" style="rounded=0;whiteSpace=wrap;html=1;fillColor=#dae8fc;strokeColor=none;" parent="1" vertex="1">
          <mxGeometry x="710" y="100" width="20" height="20" as="geometry" />
        </mxCell>
        <mxCell id="mDkBpy17l9RmWBWMpbGm-23" value="" style="rounded=0;whiteSpace=wrap;html=1;fillColor=#ffe6cc;strokeColor=none;" parent="1" vertex="1">
          <mxGeometry x="560" y="130" width="20" height="20" as="geometry" />
        </mxCell>
        <mxCell id="mDkBpy17l9RmWBWMpbGm-24" value="&lt;font style=&quot;font-size: 12px;&quot;&gt;NOT DONE&lt;/font&gt;" style="text;strokeColor=none;fillColor=none;html=1;fontSize=14;fontStyle=0;verticalAlign=middle;align=left;fontFamily=Times New Roman;" parent="1" vertex="1">
          <mxGeometry x="590" y="40" width="80" height="20" as="geometry" />
        </mxCell>
        <mxCell id="mDkBpy17l9RmWBWMpbGm-25" value="&lt;span style=&quot;font-size: 12px;&quot;&gt;DONE&lt;/span&gt;" style="text;strokeColor=none;fillColor=none;html=1;fontSize=14;fontStyle=0;verticalAlign=middle;align=left;fontFamily=Times New Roman;" parent="1" vertex="1">
          <mxGeometry x="590" y="70" width="80" height="20" as="geometry" />
        </mxCell>
        <mxCell id="mDkBpy17l9RmWBWMpbGm-26" value="&lt;span style=&quot;font-size: 12px;&quot;&gt;TODO&lt;/span&gt;" style="text;strokeColor=none;fillColor=none;html=1;fontSize=14;fontStyle=0;verticalAlign=middle;align=left;fontFamily=Times New Roman;" parent="1" vertex="1">
          <mxGeometry x="740" y="100" width="80" height="20" as="geometry" />
        </mxCell>
        <mxCell id="mDkBpy17l9RmWBWMpbGm-27" value="&lt;span style=&quot;font-size: 12px;&quot;&gt;PARTIALY DONE&lt;/span&gt;" style="text;strokeColor=none;fillColor=none;html=1;fontSize=14;fontStyle=0;verticalAlign=middle;align=left;fontFamily=Times New Roman;" parent="1" vertex="1">
          <mxGeometry x="590" y="130" width="100" height="20" as="geometry" />
        </mxCell>
        <mxCell id="mDkBpy17l9RmWBWMpbGm-28" value="&lt;font face=&quot;Times New Roman&quot;&gt;Difficulty&lt;/font&gt;" style="rounded=1;whiteSpace=wrap;html=1;fillColor=#f8cecc;strokeColor=none;verticalAlign=middle;" parent="1" vertex="1">
          <mxGeometry x="95" y="520" width="140" height="40" as="geometry" />
        </mxCell>
        <mxCell id="mDkBpy17l9RmWBWMpbGm-29" value="&lt;font face=&quot;Times New Roman&quot;&gt;Button&lt;/font&gt;" style="rounded=1;whiteSpace=wrap;html=1;fillColor=#f8cecc;strokeColor=none;" parent="1" vertex="1">
          <mxGeometry x="160" y="570" width="130" height="40" as="geometry" />
        </mxCell>
        <mxCell id="mDkBpy17l9RmWBWMpbGm-30" value="&lt;font face=&quot;Times New Roman&quot;&gt;When a button is pushed some of the terrain will start to move in order to finish the level&lt;/font&gt;" style="rounded=1;whiteSpace=wrap;html=1;fillColor=#f8cecc;strokeColor=none;" parent="1" vertex="1">
          <mxGeometry x="220" y="620" width="270" height="50" as="geometry" />
        </mxCell>
        <mxCell id="mDkBpy17l9RmWBWMpbGm-31" value="" style="endArrow=none;html=1;rounded=0;strokeWidth=2;entryX=0.25;entryY=1;entryDx=0;entryDy=0;" parent="1" edge="1">
          <mxGeometry width="50" height="50" relative="1" as="geometry">
            <mxPoint x="130" y="490" as="sourcePoint" />
            <mxPoint x="130" y="230" as="targetPoint" />
          </mxGeometry>
        </mxCell>
        <mxCell id="mDkBpy17l9RmWBWMpbGm-32" value="" style="endArrow=none;html=1;rounded=0;strokeWidth=2;entryX=0.25;entryY=1;entryDx=0;entryDy=0;" parent="1" target="mDkBpy17l9RmWBWMpbGm-28" edge="1">
          <mxGeometry width="50" height="50" relative="1" as="geometry">
            <mxPoint x="130" y="860" as="sourcePoint" />
            <mxPoint x="130" y="570" as="targetPoint" />
          </mxGeometry>
        </mxCell>
        <mxCell id="mDkBpy17l9RmWBWMpbGm-33" value="" style="endArrow=none;html=1;rounded=0;strokeWidth=2;entryX=0.25;entryY=1;entryDx=0;entryDy=0;" parent="1" target="mDkBpy17l9RmWBWMpbGm-29" edge="1">
          <mxGeometry width="50" height="50" relative="1" as="geometry">
            <mxPoint x="193" y="650" as="sourcePoint" />
            <mxPoint x="190" y="620" as="targetPoint" />
          </mxGeometry>
        </mxCell>
        <mxCell id="mDkBpy17l9RmWBWMpbGm-34" value="&lt;font face=&quot;Times New Roman&quot;&gt;Bounciness of the wall&lt;/font&gt;" style="rounded=1;whiteSpace=wrap;html=1;fillColor=#f8cecc;strokeColor=none;" parent="1" vertex="1">
          <mxGeometry x="160" y="680" width="130" height="40" as="geometry" />
        </mxCell>
        <mxCell id="mDkBpy17l9RmWBWMpbGm-35" value="&lt;font face=&quot;Times New Roman&quot;&gt;When player hit the wall it will bounce a little bit on the opposite side for player environment&lt;/font&gt;" style="rounded=1;whiteSpace=wrap;html=1;fillColor=#f8cecc;strokeColor=none;" parent="1" vertex="1">
          <mxGeometry x="220" y="730" width="260" height="50" as="geometry" />
        </mxCell>
        <mxCell id="mDkBpy17l9RmWBWMpbGm-36" value="&lt;font face=&quot;Times New Roman&quot;&gt;Falling&lt;/font&gt;" style="rounded=1;whiteSpace=wrap;html=1;fillColor=#f8cecc;strokeColor=none;" parent="1" vertex="1">
          <mxGeometry x="160" y="790" width="130" height="40" as="geometry" />
        </mxCell>
        <mxCell id="mDkBpy17l9RmWBWMpbGm-37" value="&lt;font face=&quot;Times New Roman&quot;&gt;Player will constantly fall unless it hits the ground&lt;/font&gt;" style="rounded=1;whiteSpace=wrap;html=1;fillColor=#f8cecc;strokeColor=none;" parent="1" vertex="1">
          <mxGeometry x="220" y="840" width="280" height="40" as="geometry" />
        </mxCell>
        <mxCell id="mDkBpy17l9RmWBWMpbGm-38" value="" style="endArrow=none;html=1;rounded=0;strokeWidth=2;entryX=0.25;entryY=1;entryDx=0;entryDy=0;" parent="1" target="mDkBpy17l9RmWBWMpbGm-34" edge="1">
          <mxGeometry width="50" height="50" relative="1" as="geometry">
            <mxPoint x="193" y="760" as="sourcePoint" />
            <mxPoint x="190" y="730" as="targetPoint" />
          </mxGeometry>
        </mxCell>
        <mxCell id="mDkBpy17l9RmWBWMpbGm-39" value="" style="endArrow=none;html=1;rounded=0;strokeWidth=2;entryX=0.25;entryY=1;entryDx=0;entryDy=0;" parent="1" target="mDkBpy17l9RmWBWMpbGm-36" edge="1">
          <mxGeometry width="50" height="50" relative="1" as="geometry">
            <mxPoint x="193" y="860" as="sourcePoint" />
            <mxPoint x="190" y="840" as="targetPoint" />
          </mxGeometry>
        </mxCell>
        <mxCell id="mDkBpy17l9RmWBWMpbGm-40" value="" style="rounded=0;whiteSpace=wrap;html=1;fillColor=#f5f5f5;strokeColor=none;fontColor=#333333;" parent="1" vertex="1">
          <mxGeometry x="710" y="40" width="20" height="20" as="geometry" />
        </mxCell>
        <mxCell id="mDkBpy17l9RmWBWMpbGm-41" value="&lt;font style=&quot;font-size: 12px;&quot;&gt;NOTE&lt;/font&gt;" style="text;strokeColor=none;fillColor=none;html=1;fontSize=14;fontStyle=0;verticalAlign=middle;align=left;fontFamily=Times New Roman;" parent="1" vertex="1">
          <mxGeometry x="740" y="40" width="80" height="20" as="geometry" />
        </mxCell>
        <mxCell id="mDkBpy17l9RmWBWMpbGm-42" value="" style="rounded=0;whiteSpace=wrap;html=1;fillColor=#bac8d3;strokeColor=none;" parent="1" vertex="1">
          <mxGeometry x="710" y="70" width="20" height="20" as="geometry" />
        </mxCell>
        <mxCell id="mDkBpy17l9RmWBWMpbGm-43" value="&lt;span style=&quot;font-size: 12px;&quot;&gt;NOTE NOTE..&lt;/span&gt;" style="text;strokeColor=none;fillColor=none;html=1;fontSize=14;fontStyle=0;verticalAlign=middle;align=left;fontFamily=Times New Roman;" parent="1" vertex="1">
          <mxGeometry x="740" y="70" width="80" height="20" as="geometry" />
        </mxCell>
        <mxCell id="mDkBpy17l9RmWBWMpbGm-44" value="&lt;font face=&quot;Times New Roman&quot;&gt;TO CONTINUE..&lt;/font&gt;" style="rounded=0;whiteSpace=wrap;html=1;fillColor=#d0cee2;strokeColor=none;" parent="1" vertex="1">
          <mxGeometry x="190" y="950" width="490" height="60" as="geometry" />
        </mxCell>
        <mxCell id="cIFXKFzJYZc7O3raHuJb-2" value="" style="rounded=0;whiteSpace=wrap;html=1;fillColor=#e51400;strokeColor=none;fontColor=#ffffff;" vertex="1" parent="1">
          <mxGeometry x="560" y="100" width="20" height="20" as="geometry" />
        </mxCell>
        <mxCell id="cIFXKFzJYZc7O3raHuJb-3" value="&lt;span style=&quot;font-size: 12px;&quot;&gt;CURRENTLY DOING&lt;/span&gt;" style="text;strokeColor=none;fillColor=none;html=1;fontSize=14;fontStyle=0;verticalAlign=middle;align=left;fontFamily=Times New Roman;" vertex="1" parent="1">
          <mxGeometry x="590" y="100" width="100" height="20" as="geometry" />
        </mxCell>
        <mxCell id="cIFXKFzJYZc7O3raHuJb-4" value="" style="ellipse;whiteSpace=wrap;html=1;aspect=fixed;fillColor=#e51400;fontColor=#ffffff;strokeColor=none;" vertex="1" parent="1">
          <mxGeometry x="170" y="265" width="10" height="10" as="geometry" />
        </mxCell>
        <mxCell id="cIFXKFzJYZc7O3raHuJb-5" value="" style="ellipse;whiteSpace=wrap;html=1;aspect=fixed;fillColor=#e51400;fontColor=#ffffff;strokeColor=none;" vertex="1" parent="1">
          <mxGeometry x="170" y="315" width="10" height="10" as="geometry" />
        </mxCell>
        <mxCell id="cIFXKFzJYZc7O3raHuJb-6" value="" style="ellipse;whiteSpace=wrap;html=1;aspect=fixed;fillColor=#e51400;fontColor=#ffffff;strokeColor=none;" vertex="1" parent="1">
          <mxGeometry x="110" y="205" width="10" height="10" as="geometry" />
        </mxCell>
      </root>
    </mxGraphModel>
  </diagram>
</mxfile>
